<svg xmlns="http://www.w3.org/2000/svg" width="880" height="192" viewBox="0 0 880 192" role="img" aria-label="Prompt calendar"><style>text{font-family:-apple-system,BlinkMacSystemFont,'Segoe UI','Noto Sans',Helvetica,Arial,sans-serif,'Apple Color Emoji','Segoe UI Emoji'}.mono{font-family:ui-monospace,SFMono-Regular,'SF Mono',Menlo,Consolas,'Liberation Mono',monospace}.h{font-size:14px;font-weight:600;fill:#f0f6fc}.sub{font-size:12px;fill:#9198a1}.tick{font-size:10px;fill:#9198a1}.foot{font-size:11px;fill:#6e7681}.num{font-size:22px;font-weight:600;fill:#f0f6fc}.num-s{font-size:15px;font-weight:600;fill:#f0f6fc}.lab{font-size:11px;fill:#9198a1}@keyframes fu{from{opacity:0;transform:translateY(5px)}to{opacity:1;transform:none}}@keyframes po{from{opacity:0;transform:scale(.5)}to{opacity:1;transform:none}}@keyframes gw{from{transform:scaleX(0)}to{transform:scaleX(1)}}@keyframes fi{from{opacity:0}to{opacity:1}}@keyframes blink{0%,49%{opacity:1}50%,100%{opacity:0}}.fu{animation:fu .5s cubic-bezier(.22,1,.36,1) both}.po{animation:po .4s cubic-bezier(.22,1,.36,1) both;transform-box:fill-box;transform-origin:center}.gw{animation:gw .8s cubic-bezier(.22,1,.36,1) both;transform-box:fill-box;transform-origin:left center}.fi{animation:fi .45s ease-out both}.cur{animation:blink 1.1s step-end infinite}</style><rect x=".5" y=".5" width="879" height="191" rx="6" fill="#0d1117" stroke="#3d444d"/><text class="h fu" x="16" y="30">3,993 prompts since 2025-09-30</text><text class="sub fu" x="864" y="30" text-anchor="end">claude-code + codex · 140 active days</text><style>.kdarkd0{animation-delay:0.100s}.kdarkd1{animation-delay:0.108s}.kdarkd2{animation-delay:0.116s}.kdarkd3{animation-delay:0.124s}.kdarkd4{animation-delay:0.132s}.kdarkd5{animation-delay:0.140s}.kdarkd6{animation-delay:0.148s}.kdarkd7{animation-delay:0.156s}.kdarkd8{animation-delay:0.164s}.kdarkd9{animation-delay:0.172s}.kdarkd10{animation-delay:0.180s}.kdarkd11{animation-delay:0.188s}.kdarkd12{animation-delay:0.196s}.kdarkd13{animation-delay:0.204s}.kdarkd14{animation-delay:0.212s}.kdarkd15{animation-delay:0.220s}.kdarkd16{animation-delay:0.228s}.kdarkd17{animation-delay:0.236s}.kdarkd18{animation-delay:0.244s}.kdarkd19{animation-delay:0.252s}.kdarkd20{animation-delay:0.260s}.kdarkd21{animation-delay:0.268s}.kdarkd22{animation-delay:0.276s}.kdarkd23{animation-delay:0.284s}.kdarkd24{animation-delay:0.292s}.kdarkd25{animation-delay:0.300s}.kdarkd26{animation-delay:0.308s}.kdarkd27{animation-delay:0.316s}.kdarkd28{animation-delay:0.324s}.kdarkd29{animation-delay:0.332s}.kdarkd30{animation-delay:0.340s}.kdarkd31{animation-delay:0.348s}.kdarkd32{animation-delay:0.356s}.kdarkd33{animation-delay:0.364s}.kdarkd34{animation-delay:0.372s}.kdarkd35{animation-delay:0.380s}.kdarkd36{animation-delay:0.388s}.kdarkd37{animation-delay:0.396s}.kdarkd38{animation-delay:0.404s}.kdarkd39{animation-delay:0.412s}.kdarkd40{animation-delay:0.420s}.kdarkd41{animation-delay:0.428s}.kdarkd42{animation-delay:0.436s}.kdarkd43{animation-delay:0.444s}.kdarkd44{animation-delay:0.452s}.kdarkd45{animation-delay:0.460s}.kdarkd46{animation-delay:0.468s}</style><defs><rect id="kdarkc" width="12" height="12" rx="2"/></defs><text class="tick" x="104" y="54">Oct</text><text class="tick" x="164" y="54">Nov</text><text class="tick" x="239" y="54">Dec</text><text class="tick" x="299" y="54">Jan</text><text class="tick" x="359" y="54">Feb</text><text class="tick" x="419" y="54">Mar</text><text class="tick" x="494" y="54">Apr</text><text class="tick" x="554" y="54">May</text><text class="tick" x="629" y="54">Jun</text><text class="tick" x="689" y="54">Jul</text><text class="tick" x="749" y="54">Aug</text><text class="tick" x="81" y="85" text-anchor="end">Mon</text><text class="tick" x="81" y="115" text-anchor="end">Wed</text><text class="tick" x="81" y="145" text-anchor="end">Fri</text><use class="po kdarkd0" href="#kdarkc" x="89" y="60" fill="#161b22"/><use class="po kdarkd0" href="#kdarkc" x="89" y="75" fill="#161b22"/><use class="po kdarkd0" href="#kdarkc" x="89" y="90" fill="#7449d6"/><use class="po kdarkd0" href="#kdarkc" x="89" y="105" fill="#161b22"/><use class="po kdarkd0" href="#kdarkc" x="89" y="120" fill="#161b22"/><use class="po kdarkd0" href="#kdarkc" x="89" y="135" fill="#161b22"/><use class="po kdarkd0" href="#kdarkc" x="89" y="150" fill="#161b22"/><use class="po kdarkd1" href="#kdarkc" x="104" y="60" fill="#161b22"/><use class="po kdarkd1" href="#kdarkc" x="104" y="75" fill="#161b22"/><use class="po kdarkd1" href="#kdarkc" x="104" y="90" fill="#161b22"/><use class="po kdarkd1" href="#kdarkc" x="104" y="105" fill="#161b22"/><use class="po kdarkd1" href="#kdarkc" x="104" y="120" fill="#161b22"/><use class="po kdarkd1" href="#kdarkc" x="104" y="135" fill="#161b22"/><use class="po kdarkd1" href="#kdarkc" x="104" y="150" fill="#161b22"/><use class="po kdarkd2" href="#kdarkc" x="119" y="60" fill="#161b22"/><use class="po kdarkd2" href="#kdarkc" x="119" y="75" fill="#161b22"/><use class="po kdarkd2" href="#kdarkc" x="119" y="90" fill="#161b22"/><use class="po kdarkd2" href="#kdarkc" x="119" y="105" fill="#4d2fa0"/><use class="po kdarkd2" href="#kdarkc" x="119" y="120" fill="#a78bfa"/><use class="po kdarkd2" href="#kdarkc" x="119" y="135" fill="#161b22"/><use class="po kdarkd2" href="#kdarkc" x="119" y="150" fill="#161b22"/><use class="po kdarkd3" href="#kdarkc" x="134" y="60" fill="#161b22"/><use class="po kdarkd3" href="#kdarkc" x="134" y="75" fill="#4d2fa0"/><use class="po kdarkd3" href="#kdarkc" x="134" y="90" fill="#a78bfa"/><use class="po kdarkd3" href="#kdarkc" x="134" y="105" fill="#7449d6"/><use class="po kdarkd3" href="#kdarkc" x="134" y="120" fill="#7449d6"/><use class="po kdarkd3" href="#kdarkc" x="134" y="135" fill="#a78bfa"/><use class="po kdarkd3" href="#kdarkc" x="134" y="150" fill="#161b22"/><use class="po kdarkd4" href="#kdarkc" x="149" y="60" fill="#161b22"/><use class="po kdarkd4" href="#kdarkc" x="149" y="75" fill="#7449d6"/><use class="po kdarkd4" href="#kdarkc" x="149" y="90" fill="#7449d6"/><use class="po kdarkd4" href="#kdarkc" x="149" y="105" fill="#4d2fa0"/><use class="po kdarkd4" href="#kdarkc" x="149" y="120" fill="#30215f"/><use class="po kdarkd4" href="#kdarkc" x="149" y="135" fill="#161b22"/><use class="po kdarkd4" href="#kdarkc" x="149" y="150" fill="#161b22"/><use class="po kdarkd5" href="#kdarkc" x="164" y="60" fill="#30215f"/><use class="po kdarkd5" href="#kdarkc" x="164" y="75" fill="#a78bfa"/><use class="po kdarkd5" href="#kdarkc" x="164" y="90" fill="#161b22"/><use class="po kdarkd5" href="#kdarkc" x="164" y="105" fill="#30215f"/><use class="po kdarkd5" href="#kdarkc" x="164" y="120" fill="#161b22"/><use class="po kdarkd5" href="#kdarkc" x="164" y="135" fill="#161b22"/><use class="po kdarkd5" href="#kdarkc" x="164" y="150" fill="#161b22"/><use class="po kdarkd6" href="#kdarkc" x="179" y="60" fill="#161b22"/><use class="po kdarkd6" href="#kdarkc" x="179" y="75" fill="#161b22"/><use class="po kdarkd6" href="#kdarkc" x="179" y="90" fill="#161b22"/><use class="po kdarkd6" href="#kdarkc" x="179" y="105" fill="#161b22"/><use class="po kdarkd6" href="#kdarkc" x="179" y="120" fill="#161b22"/><use class="po kdarkd6" href="#kdarkc" x="179" y="135" fill="#4d2fa0"/><use class="po kdarkd6" href="#kdarkc" x="179" y="150" fill="#161b22"/><use class="po kdarkd7" href="#kdarkc" x="194" y="60" fill="#161b22"/><use class="po kdarkd7" href="#kdarkc" x="194" y="75" fill="#7449d6"/><use class="po kdarkd7" href="#kdarkc" x="194" y="90" fill="#161b22"/><use class="po kdarkd7" href="#kdarkc" x="194" y="105" fill="#30215f"/><use class="po kdarkd7" href="#kdarkc" x="194" y="120" fill="#161b22"/><use class="po kdarkd7" href="#kdarkc" x="194" y="135" fill="#161b22"/><use class="po kdarkd7" href="#kdarkc" x="194" y="150" fill="#161b22"/><use class="po kdarkd8" href="#kdarkc" x="209" y="60" fill="#161b22"/><use class="po kdarkd8" href="#kdarkc" x="209" y="75" fill="#161b22"/><use class="po kdarkd8" href="#kdarkc" x="209" y="90" fill="#30215f"/><use class="po kdarkd8" href="#kdarkc" x="209" y="105" fill="#30215f"/><use class="po kdarkd8" href="#kdarkc" x="209" y="120" fill="#161b22"/><use class="po kdarkd8" href="#kdarkc" x="209" y="135" fill="#161b22"/><use class="po kdarkd8" href="#kdarkc" x="209" y="150" fill="#161b22"/><use class="po kdarkd9" href="#kdarkc" x="224" y="60" fill="#161b22"/><use class="po kdarkd9" href="#kdarkc" x="224" y="75" fill="#161b22"/><use class="po kdarkd9" href="#kdarkc" x="224" y="90" fill="#30215f"/><use class="po kdarkd9" href="#kdarkc" x="224" y="105" fill="#161b22"/><use class="po kdarkd9" href="#kdarkc" x="224" y="120" fill="#161b22"/><use class="po kdarkd9" href="#kdarkc" x="224" y="135" fill="#7449d6"/><use class="po kdarkd9" href="#kdarkc" x="224" y="150" fill="#30215f"/><use class="po kdarkd10" href="#kdarkc" x="239" y="60" fill="#30215f"/><use class="po kdarkd10" href="#kdarkc" x="239" y="75" fill="#161b22"/><use class="po kdarkd10" href="#kdarkc" x="239" y="90" fill="#161b22"/><use class="po kdarkd10" href="#kdarkc" x="239" y="105" fill="#161b22"/><use class="po kdarkd10" href="#kdarkc" x="239" y="120" fill="#161b22"/><use class="po kdarkd10" href="#kdarkc" x="239" y="135" fill="#161b22"/><use class="po kdarkd10" href="#kdarkc" x="239" y="150" fill="#161b22"/><use class="po kdarkd11" href="#kdarkc" x="254" y="60" fill="#161b22"/><use class="po kdarkd11" href="#kdarkc" x="254" y="75" fill="#161b22"/><use class="po kdarkd11" href="#kdarkc" x="254" y="90" fill="#161b22"/><use class="po kdarkd11" href="#kdarkc" x="254" y="105" fill="#161b22"/><use class="po kdarkd11" href="#kdarkc" x="254" y="120" fill="#161b22"/><use class="po kdarkd11" href="#kdarkc" x="254" y="135" fill="#161b22"/><use class="po kdarkd11" href="#kdarkc" x="254" y="150" fill="#161b22"/><use class="po kdarkd12" href="#kdarkc" x="269" y="60" fill="#7449d6"/><use class="po kdarkd12" href="#kdarkc" x="269" y="75" fill="#30215f"/><use class="po kdarkd12" href="#kdarkc" x="269" y="90" fill="#161b22"/><use class="po kdarkd12" href="#kdarkc" x="269" y="105" fill="#161b22"/><use class="po kdarkd12" href="#kdarkc" x="269" y="120" fill="#161b22"/><use class="po kdarkd12" href="#kdarkc" x="269" y="135" fill="#7449d6"/><use class="po kdarkd12" href="#kdarkc" x="269" y="150" fill="#161b22"/><use class="po kdarkd13" href="#kdarkc" x="284" y="60" fill="#4d2fa0"/><use class="po kdarkd13" href="#kdarkc" x="284" y="75" fill="#4d2fa0"/><use class="po kdarkd13" href="#kdarkc" x="284" y="90" fill="#4d2fa0"/><use class="po kdarkd13" href="#kdarkc" x="284" y="105" fill="#30215f"/><use class="po kdarkd13" href="#kdarkc" x="284" y="120" fill="#161b22"/><use class="po kdarkd13" href="#kdarkc" x="284" y="135" fill="#4d2fa0"/><use class="po kdarkd13" href="#kdarkc" x="284" y="150" fill="#161b22"/><use class="po kdarkd14" href="#kdarkc" x="299" y="60" fill="#161b22"/><use class="po kdarkd14" href="#kdarkc" x="299" y="75" fill="#30215f"/><use class="po kdarkd14" href="#kdarkc" x="299" y="90" fill="#7449d6"/><use class="po kdarkd14" href="#kdarkc" x="299" y="105" fill="#30215f"/><use class="po kdarkd14" href="#kdarkc" x="299" y="120" fill="#161b22"/><use class="po kdarkd14" href="#kdarkc" x="299" y="135" fill="#4d2fa0"/><use class="po kdarkd14" href="#kdarkc" x="299" y="150" fill="#4d2fa0"/><use class="po kdarkd15" href="#kdarkc" x="314" y="60" fill="#30215f"/><use class="po kdarkd15" href="#kdarkc" x="314" y="75" fill="#30215f"/><use class="po kdarkd15" href="#kdarkc" x="314" y="90" fill="#4d2fa0"/><use class="po kdarkd15" href="#kdarkc" x="314" y="105" fill="#4d2fa0"/><use class="po kdarkd15" href="#kdarkc" x="314" y="120" fill="#a78bfa"/><use class="po kdarkd15" href="#kdarkc" x="314" y="135" fill="#30215f"/><use class="po kdarkd15" href="#kdarkc" x="314" y="150" fill="#161b22"/><use class="po kdarkd16" href="#kdarkc" x="329" y="60" fill="#161b22"/><use class="po kdarkd16" href="#kdarkc" x="329" y="75" fill="#161b22"/><use class="po kdarkd16" href="#kdarkc" x="329" y="90" fill="#4d2fa0"/><use class="po kdarkd16" href="#kdarkc" x="329" y="105" fill="#7449d6"/><use class="po kdarkd16" href="#kdarkc" x="329" y="120" fill="#7449d6"/><use class="po kdarkd16" href="#kdarkc" x="329" y="135" fill="#7449d6"/><use class="po kdarkd16" href="#kdarkc" x="329" y="150" fill="#161b22"/><use class="po kdarkd17" href="#kdarkc" x="344" y="60" fill="#30215f"/><use class="po kdarkd17" href="#kdarkc" x="344" y="75" fill="#7449d6"/><use class="po kdarkd17" href="#kdarkc" x="344" y="90" fill="#161b22"/><use class="po kdarkd17" href="#kdarkc" x="344" y="105" fill="#161b22"/><use class="po kdarkd17" href="#kdarkc" x="344" y="120" fill="#161b22"/><use class="po kdarkd17" href="#kdarkc" x="344" y="135" fill="#30215f"/><use class="po kdarkd17" href="#kdarkc" x="344" y="150" fill="#161b22"/><use class="po kdarkd18" href="#kdarkc" x="359" y="60" fill="#161b22"/><use class="po kdarkd18" href="#kdarkc" x="359" y="75" fill="#161b22"/><use class="po kdarkd18" href="#kdarkc" x="359" y="90" fill="#161b22"/><use class="po kdarkd18" href="#kdarkc" x="359" y="105" fill="#161b22"/><use class="po kdarkd18" href="#kdarkc" x="359" y="120" fill="#4d2fa0"/><use class="po kdarkd18" href="#kdarkc" x="359" y="135" fill="#161b22"/><use class="po kdarkd18" href="#kdarkc" x="359" y="150" fill="#161b22"/><use class="po kdarkd19" href="#kdarkc" x="374" y="60" fill="#161b22"/><use class="po kdarkd19" href="#kdarkc" x="374" y="75" fill="#161b22"/><use class="po kdarkd19" href="#kdarkc" x="374" y="90" fill="#161b22"/><use class="po kdarkd19" href="#kdarkc" x="374" y="105" fill="#161b22"/><use class="po kdarkd19" href="#kdarkc" x="374" y="120" fill="#161b22"/><use class="po kdarkd19" href="#kdarkc" x="374" y="135" fill="#161b22"/><use class="po kdarkd19" href="#kdarkc" x="374" y="150" fill="#161b22"/><use class="po kdarkd20" href="#kdarkc" x="389" y="60" fill="#161b22"/><use class="po kdarkd20" href="#kdarkc" x="389" y="75" fill="#161b22"/><use class="po kdarkd20" href="#kdarkc" x="389" y="90" fill="#161b22"/><use class="po kdarkd20" href="#kdarkc" x="389" y="105" fill="#161b22"/><use class="po kdarkd20" href="#kdarkc" x="389" y="120" fill="#161b22"/><use class="po kdarkd20" href="#kdarkc" x="389" y="135" fill="#161b22"/><use class="po kdarkd20" href="#kdarkc" x="389" y="150" fill="#161b22"/><use class="po kdarkd21" href="#kdarkc" x="404" y="60" fill="#161b22"/><use class="po kdarkd21" href="#kdarkc" x="404" y="75" fill="#161b22"/><use class="po kdarkd21" href="#kdarkc" x="404" y="90" fill="#161b22"/><use class="po kdarkd21" href="#kdarkc" x="404" y="105" fill="#161b22"/><use class="po kdarkd21" href="#kdarkc" x="404" y="120" fill="#30215f"/><use class="po kdarkd21" href="#kdarkc" x="404" y="135" fill="#161b22"/><use class="po kdarkd21" href="#kdarkc" x="404" y="150" fill="#161b22"/><use class="po kdarkd22" href="#kdarkc" x="419" y="60" fill="#161b22"/><use class="po kdarkd22" href="#kdarkc" x="419" y="75" fill="#161b22"/><use class="po kdarkd22" href="#kdarkc" x="419" y="90" fill="#30215f"/><use class="po kdarkd22" href="#kdarkc" x="419" y="105" fill="#30215f"/><use class="po kdarkd22" href="#kdarkc" x="419" y="120" fill="#161b22"/><use class="po kdarkd22" href="#kdarkc" x="419" y="135" fill="#4d2fa0"/><use class="po kdarkd22" href="#kdarkc" x="419" y="150" fill="#161b22"/><use class="po kdarkd23" href="#kdarkc" x="434" y="60" fill="#161b22"/><use class="po kdarkd23" href="#kdarkc" x="434" y="75" fill="#30215f"/><use class="po kdarkd23" href="#kdarkc" x="434" y="90" fill="#161b22"/><use class="po kdarkd23" href="#kdarkc" x="434" y="105" fill="#161b22"/><use class="po kdarkd23" href="#kdarkc" x="434" y="120" fill="#30215f"/><use class="po kdarkd23" href="#kdarkc" x="434" y="135" fill="#161b22"/><use class="po kdarkd23" href="#kdarkc" x="434" y="150" fill="#161b22"/><use class="po kdarkd24" href="#kdarkc" x="449" y="60" fill="#161b22"/><use class="po kdarkd24" href="#kdarkc" x="449" y="75" fill="#30215f"/><use class="po kdarkd24" href="#kdarkc" x="449" y="90" fill="#161b22"/><use class="po kdarkd24" href="#kdarkc" x="449" y="105" fill="#161b22"/><use class="po kdarkd24" href="#kdarkc" x="449" y="120" fill="#161b22"/><use class="po kdarkd24" href="#kdarkc" x="449" y="135" fill="#7449d6"/><use class="po kdarkd24" href="#kdarkc" x="449" y="150" fill="#161b22"/><use class="po kdarkd25" href="#kdarkc" x="464" y="60" fill="#161b22"/><use class="po kdarkd25" href="#kdarkc" x="464" y="75" fill="#4d2fa0"/><use class="po kdarkd25" href="#kdarkc" x="464" y="90" fill="#30215f"/><use class="po kdarkd25" href="#kdarkc" x="464" y="105" fill="#30215f"/><use class="po kdarkd25" href="#kdarkc" x="464" y="120" fill="#161b22"/><use class="po kdarkd25" href="#kdarkc" x="464" y="135" fill="#161b22"/><use class="po kdarkd25" href="#kdarkc" x="464" y="150" fill="#161b22"/><use class="po kdarkd26" href="#kdarkc" x="479" y="60" fill="#161b22"/><use class="po kdarkd26" href="#kdarkc" x="479" y="75" fill="#161b22"/><use class="po kdarkd26" href="#kdarkc" x="479" y="90" fill="#30215f"/><use class="po kdarkd26" href="#kdarkc" x="479" y="105" fill="#161b22"/><use class="po kdarkd26" href="#kdarkc" x="479" y="120" fill="#161b22"/><use class="po kdarkd26" href="#kdarkc" x="479" y="135" fill="#161b22"/><use class="po kdarkd26" href="#kdarkc" x="479" y="150" fill="#161b22"/><use class="po kdarkd27" href="#kdarkc" x="494" y="60" fill="#161b22"/><use class="po kdarkd27" href="#kdarkc" x="494" y="75" fill="#161b22"/><use class="po kdarkd27" href="#kdarkc" x="494" y="90" fill="#161b22"/><use class="po kdarkd27" href="#kdarkc" x="494" y="105" fill="#161b22"/><use class="po kdarkd27" href="#kdarkc" x="494" y="120" fill="#161b22"/><use class="po kdarkd27" href="#kdarkc" x="494" y="135" fill="#161b22"/><use class="po kdarkd27" href="#kdarkc" x="494" y="150" fill="#161b22"/><use class="po kdarkd28" href="#kdarkc" x="509" y="60" fill="#161b22"/><use class="po kdarkd28" href="#kdarkc" x="509" y="75" fill="#30215f"/><use class="po kdarkd28" href="#kdarkc" x="509" y="90" fill="#161b22"/><use class="po kdarkd28" href="#kdarkc" x="509" y="105" fill="#161b22"/><use class="po kdarkd28" href="#kdarkc" x="509" y="120" fill="#161b22"/><use class="po kdarkd28" href="#kdarkc" x="509" y="135" fill="#161b22"/><use class="po kdarkd28" href="#kdarkc" x="509" y="150" fill="#30215f"/><use class="po kdarkd29" href="#kdarkc" x="524" y="60" fill="#161b22"/><use class="po kdarkd29" href="#kdarkc" x="524" y="75" fill="#161b22"/><use class="po kdarkd29" href="#kdarkc" x="524" y="90" fill="#30215f"/><use class="po kdarkd29" href="#kdarkc" x="524" y="105" fill="#161b22"/><use class="po kdarkd29" href="#kdarkc" x="524" y="120" fill="#161b22"/><use class="po kdarkd29" href="#kdarkc" x="524" y="135" fill="#161b22"/><use class="po kdarkd29" href="#kdarkc" x="524" y="150" fill="#161b22"/><use class="po kdarkd30" href="#kdarkc" x="539" y="60" fill="#161b22"/><use class="po kdarkd30" href="#kdarkc" x="539" y="75" fill="#161b22"/><use class="po kdarkd30" href="#kdarkc" x="539" y="90" fill="#161b22"/><use class="po kdarkd30" href="#kdarkc" x="539" y="105" fill="#161b22"/><use class="po kdarkd30" href="#kdarkc" x="539" y="120" fill="#161b22"/><use class="po kdarkd30" href="#kdarkc" x="539" y="135" fill="#161b22"/><use class="po kdarkd30" href="#kdarkc" x="539" y="150" fill="#161b22"/><use class="po kdarkd31" href="#kdarkc" x="554" y="60" fill="#161b22"/><use class="po kdarkd31" href="#kdarkc" x="554" y="75" fill="#161b22"/><use class="po kdarkd31" href="#kdarkc" x="554" y="90" fill="#161b22"/><use class="po kdarkd31" href="#kdarkc" x="554" y="105" fill="#30215f"/><use class="po kdarkd31" href="#kdarkc" x="554" y="120" fill="#7449d6"/><use class="po kdarkd31" href="#kdarkc" x="554" y="135" fill="#4d2fa0"/><use class="po kdarkd31" href="#kdarkc" x="554" y="150" fill="#a78bfa"/><use class="po kdarkd32" href="#kdarkc" x="569" y="60" fill="#4d2fa0"/><use class="po kdarkd32" href="#kdarkc" x="569" y="75" fill="#4d2fa0"/><use class="po kdarkd32" href="#kdarkc" x="569" y="90" fill="#161b22"/><use class="po kdarkd32" href="#kdarkc" x="569" y="105" fill="#161b22"/><use class="po kdarkd32" href="#kdarkc" x="569" y="120" fill="#161b22"/><use class="po kdarkd32" href="#kdarkc" x="569" y="135" fill="#161b22"/><use class="po kdarkd32" href="#kdarkc" x="569" y="150" fill="#161b22"/><use class="po kdarkd33" href="#kdarkc" x="584" y="60" fill="#161b22"/><use class="po kdarkd33" href="#kdarkc" x="584" y="75" fill="#161b22"/><use class="po kdarkd33" href="#kdarkc" x="584" y="90" fill="#161b22"/><use class="po kdarkd33" href="#kdarkc" x="584" y="105" fill="#161b22"/><use class="po kdarkd33" href="#kdarkc" x="584" y="120" fill="#161b22"/><use class="po kdarkd33" href="#kdarkc" x="584" y="135" fill="#161b22"/><use class="po kdarkd33" href="#kdarkc" x="584" y="150" fill="#161b22"/><use class="po kdarkd34" href="#kdarkc" x="599" y="60" fill="#a78bfa"/><use class="po kdarkd34" href="#kdarkc" x="599" y="75" fill="#4d2fa0"/><use class="po kdarkd34" href="#kdarkc" x="599" y="90" fill="#7449d6"/><use class="po kdarkd34" href="#kdarkc" x="599" y="105" fill="#161b22"/><use class="po kdarkd34" href="#kdarkc" x="599" y="120" fill="#161b22"/><use class="po kdarkd34" href="#kdarkc" x="599" y="135" fill="#161b22"/><use class="po kdarkd34" href="#kdarkc" x="599" y="150" fill="#30215f"/><use class="po kdarkd35" href="#kdarkc" x="614" y="60" fill="#161b22"/><use class="po kdarkd35" href="#kdarkc" x="614" y="75" fill="#161b22"/><use class="po kdarkd35" href="#kdarkc" x="614" y="90" fill="#161b22"/><use class="po kdarkd35" href="#kdarkc" x="614" y="105" fill="#161b22"/><use class="po kdarkd35" href="#kdarkc" x="614" y="120" fill="#7449d6"/><use class="po kdarkd35" href="#kdarkc" x="614" y="135" fill="#4d2fa0"/><use class="po kdarkd35" href="#kdarkc" x="614" y="150" fill="#161b22"/><use class="po kdarkd36" href="#kdarkc" x="629" y="60" fill="#161b22"/><use class="po kdarkd36" href="#kdarkc" x="629" y="75" fill="#4d2fa0"/><use class="po kdarkd36" href="#kdarkc" x="629" y="90" fill="#161b22"/><use class="po kdarkd36" href="#kdarkc" x="629" y="105" fill="#161b22"/><use class="po kdarkd36" href="#kdarkc" x="629" y="120" fill="#30215f"/><use class="po kdarkd36" href="#kdarkc" x="629" y="135" fill="#7449d6"/><use class="po kdarkd36" href="#kdarkc" x="629" y="150" fill="#161b22"/><use class="po kdarkd37" href="#kdarkc" x="644" y="60" fill="#7449d6"/><use class="po kdarkd37" href="#kdarkc" x="644" y="75" fill="#a78bfa"/><use class="po kdarkd37" href="#kdarkc" x="644" y="90" fill="#7449d6"/><use class="po kdarkd37" href="#kdarkc" x="644" y="105" fill="#4d2fa0"/><use class="po kdarkd37" href="#kdarkc" x="644" y="120" fill="#30215f"/><use class="po kdarkd37" href="#kdarkc" x="644" y="135" fill="#30215f"/><use class="po kdarkd37" href="#kdarkc" x="644" y="150" fill="#7449d6"/><use class="po kdarkd38" href="#kdarkc" x="659" y="60" fill="#161b22"/><use class="po kdarkd38" href="#kdarkc" x="659" y="75" fill="#a78bfa"/><use class="po kdarkd38" href="#kdarkc" x="659" y="90" fill="#4d2fa0"/><use class="po kdarkd38" href="#kdarkc" x="659" y="105" fill="#a78bfa"/><use class="po kdarkd38" href="#kdarkc" x="659" y="120" fill="#a78bfa"/><use class="po kdarkd38" href="#kdarkc" x="659" y="135" fill="#7449d6"/><use class="po kdarkd38" href="#kdarkc" x="659" y="150" fill="#30215f"/><use class="po kdarkd39" href="#kdarkc" x="674" y="60" fill="#7449d6"/><use class="po kdarkd39" href="#kdarkc" x="674" y="75" fill="#7449d6"/><use class="po kdarkd39" href="#kdarkc" x="674" y="90" fill="#a78bfa"/><use class="po kdarkd39" href="#kdarkc" x="674" y="105" fill="#7449d6"/><use class="po kdarkd39" href="#kdarkc" x="674" y="120" fill="#4d2fa0"/><use class="po kdarkd39" href="#kdarkc" x="674" y="135" fill="#7449d6"/><use class="po kdarkd39" href="#kdarkc" x="674" y="150" fill="#4d2fa0"/><use class="po kdarkd40" href="#kdarkc" x="689" y="60" fill="#7449d6"/><use class="po kdarkd40" href="#kdarkc" x="689" y="75" fill="#a78bfa"/><use class="po kdarkd40" href="#kdarkc" x="689" y="90" fill="#a78bfa"/><use class="po kdarkd40" href="#kdarkc" x="689" y="105" fill="#a78bfa"/><use class="po kdarkd40" href="#kdarkc" x="689" y="120" fill="#161b22"/><use class="po kdarkd40" href="#kdarkc" x="689" y="135" fill="#a78bfa"/><use class="po kdarkd40" href="#kdarkc" x="689" y="150" fill="#7449d6"/><use class="po kdarkd41" href="#kdarkc" x="704" y="60" fill="#4d2fa0"/><use class="po kdarkd41" href="#kdarkc" x="704" y="75" fill="#a78bfa"/><use class="po kdarkd41" href="#kdarkc" x="704" y="90" fill="#a78bfa"/><use class="po kdarkd41" href="#kdarkc" x="704" y="105" fill="#a78bfa"/><use class="po kdarkd41" href="#kdarkc" x="704" y="120" fill="#a78bfa"/><use class="po kdarkd41" href="#kdarkc" x="704" y="135" fill="#4d2fa0"/><use class="po kdarkd41" href="#kdarkc" x="704" y="150" fill="#4d2fa0"/><use class="po kdarkd42" href="#kdarkc" x="719" y="60" fill="#30215f"/><use class="po kdarkd42" href="#kdarkc" x="719" y="75" fill="#a78bfa"/><use class="po kdarkd42" href="#kdarkc" x="719" y="90" fill="#a78bfa"/><use class="po kdarkd42" href="#kdarkc" x="719" y="105" fill="#a78bfa"/><use class="po kdarkd42" href="#kdarkc" x="719" y="120" fill="#a78bfa"/><use class="po kdarkd42" href="#kdarkc" x="719" y="135" fill="#a78bfa"/><use class="po kdarkd42" href="#kdarkc" x="719" y="150" fill="#a78bfa"/><use class="po kdarkd43" href="#kdarkc" x="734" y="60" fill="#a78bfa"/><use class="po kdarkd43" href="#kdarkc" x="734" y="75" fill="#a78bfa"/><use class="po kdarkd43" href="#kdarkc" x="734" y="90" fill="#7449d6"/><use class="po kdarkd43" href="#kdarkc" x="734" y="105" fill="#7449d6"/><use class="po kdarkd43" href="#kdarkc" x="734" y="120" fill="#4d2fa0"/><use class="po kdarkd43" href="#kdarkc" x="734" y="135" fill="#161b22"/><use class="po kdarkd43" href="#kdarkc" x="734" y="150" fill="#161b22"/><use class="po kdarkd44" href="#kdarkc" x="749" y="60" fill="#7449d6"/><use class="po kdarkd44" href="#kdarkc" x="749" y="75" fill="#a78bfa"/><use class="po kdarkd44" href="#kdarkc" x="749" y="90" fill="#a78bfa"/><use class="po kdarkd44" href="#kdarkc" x="749" y="105" fill="#7449d6"/><use class="po kdarkd44" href="#kdarkc" x="749" y="120" fill="#30215f"/><use class="po kdarkd44" href="#kdarkc" x="749" y="135" fill="#161b22"/><use class="po kdarkd44" href="#kdarkc" x="749" y="150" fill="#4d2fa0"/><use class="po kdarkd45" href="#kdarkc" x="764" y="60" fill="#7449d6"/><use class="po kdarkd45" href="#kdarkc" x="764" y="75" fill="#161b22"/><use class="po kdarkd45" href="#kdarkc" x="764" y="90" fill="#4d2fa0"/><use class="po kdarkd45" href="#kdarkc" x="764" y="105" fill="#30215f"/><use class="po kdarkd45" href="#kdarkc" x="764" y="120" fill="#7449d6"/><use class="po kdarkd45" href="#kdarkc" x="764" y="135" fill="#a78bfa"/><use class="po kdarkd45" href="#kdarkc" x="764" y="150" fill="#a78bfa"/><use class="po kdarkd46" href="#kdarkc" x="779" y="60" fill="#7449d6"/><use class="po kdarkd46" href="#kdarkc" x="779" y="75" fill="#a78bfa"/><text class="foot" x="89" y="187">Prompts you sent, any model · timestamps only, no content read</text><text class="tick" x="639" y="187">Less</text><rect x="667" y="177" width="12" height="12" rx="2" fill="#161b22"/><rect x="681" y="177" width="12" height="12" rx="2" fill="#30215f"/><rect x="695" y="177" width="12" height="12" rx="2" fill="#4d2fa0"/><rect x="709" y="177" width="12" height="12" rx="2" fill="#7449d6"/><rect x="723" y="177" width="12" height="12" rx="2" fill="#a78bfa"/><text class="tick" x="741" y="187">More</text></svg>