<svg xmlns="http://www.w3.org/2000/svg" width="880" height="200" viewBox="0 0 880 200" role="img" aria-label="Coding activity heatmap"><style>text{font-family:ui-sans-serif,-apple-system,BlinkMacSystemFont,'Segoe UI',Inter,Roboto,'Helvetica Neue',Arial,sans-serif;dominant-baseline:auto}.mono{font-family:ui-monospace,SFMono-Regular,'SF Mono',Menlo,Consolas,'Liberation Mono',monospace}.h1{font-size:27px;font-weight:700;fill:#e8eef9;letter-spacing:-.6px}.h2{font-size:14px;font-weight:700;fill:#e8eef9;letter-spacing:-.1px}.eyebrow{font-size:9.5px;font-weight:700;fill:#5f6b80;letter-spacing:2.2px}.sub{font-size:12px;fill:#98a3b8}.kpi{font-size:23px;font-weight:700;fill:#e8eef9;letter-spacing:-.5px}.kpi-s{font-size:15px;font-weight:700;fill:#e8eef9}.lab{font-size:9.5px;font-weight:600;fill:#5f6b80;letter-spacing:1px}.tick{font-size:9.5px;fill:#5f6b80}.val{font-size:11px;font-weight:600;fill:#98a3b8}@keyframes fu{from{opacity:0;transform:translateY(7px)}to{opacity:1;transform:none}}@keyframes po{from{opacity:0;transform:scale(.4)}to{opacity:1;transform:none}}@keyframes gw{from{transform:scaleX(0)}to{transform:scaleX(1)}}@keyframes gy{from{transform:scaleY(0)}to{transform:scaleY(1)}}@keyframes fi{from{opacity:0}to{opacity:1}}@keyframes blink{0%,49%{opacity:1}50%,100%{opacity:0}}.fu{animation:fu .6s cubic-bezier(.22,1,.36,1) both}.po{animation:po .5s cubic-bezier(.22,1,.36,1) both;transform-box:fill-box;transform-origin:center}.gw{animation:gw .9s cubic-bezier(.22,1,.36,1) both;transform-box:fill-box;transform-origin:left center}.gy{animation:gy .9s cubic-bezier(.22,1,.36,1) both;transform-box:fill-box;transform-origin:bottom center}.fi{animation:fi .5s ease-out both}.cur{animation:blink 1.1s step-end infinite}</style><defs><linearGradient id="mdarkbg" x1="0" y1="0" x2="1" y2="1"><stop offset="0" stop-color="#0b0d13"/><stop offset="1" stop-color="#131824"/></linearGradient><linearGradient id="mdarkhl" x1="0" x2="1"><stop offset="0" stop-color="#5ce6c4" stop-opacity="0"/><stop offset=".35" stop-color="#5ce6c4"/><stop offset=".7" stop-color="#a78bfa"/><stop offset="1" stop-color="#a78bfa" stop-opacity="0"/></linearGradient></defs><rect x=".5" y=".5" width="879" height="199" rx="16" fill="url(#mdarkbg)" stroke="#232a3a"/><rect x="16" y="0" width="848" height="1.5" fill="url(#mdarkhl)" opacity=".9"/><style>.mdarkhi{stroke:#5ce6c4;stroke-opacity:.35}.mdarkd0{animation-delay:0.150s}.mdarkd1{animation-delay:0.159s}.mdarkd2{animation-delay:0.168s}.mdarkd3{animation-delay:0.177s}.mdarkd4{animation-delay:0.186s}.mdarkd5{animation-delay:0.195s}.mdarkd6{animation-delay:0.204s}.mdarkd7{animation-delay:0.213s}.mdarkd8{animation-delay:0.222s}.mdarkd9{animation-delay:0.231s}.mdarkd10{animation-delay:0.240s}.mdarkd11{animation-delay:0.249s}.mdarkd12{animation-delay:0.258s}.mdarkd13{animation-delay:0.267s}.mdarkd14{animation-delay:0.276s}.mdarkd15{animation-delay:0.285s}.mdarkd16{animation-delay:0.294s}.mdarkd17{animation-delay:0.303s}.mdarkd18{animation-delay:0.312s}.mdarkd19{animation-delay:0.321s}.mdarkd20{animation-delay:0.330s}.mdarkd21{animation-delay:0.339s}.mdarkd22{animation-delay:0.348s}.mdarkd23{animation-delay:0.357s}.mdarkd24{animation-delay:0.366s}.mdarkd25{animation-delay:0.375s}.mdarkd26{animation-delay:0.384s}.mdarkd27{animation-delay:0.393s}.mdarkd28{animation-delay:0.402s}.mdarkd29{animation-delay:0.411s}.mdarkd30{animation-delay:0.420s}.mdarkd31{animation-delay:0.429s}.mdarkd32{animation-delay:0.438s}.mdarkd33{animation-delay:0.447s}.mdarkd34{animation-delay:0.456s}.mdarkd35{animation-delay:0.465s}.mdarkd36{animation-delay:0.474s}.mdarkd37{animation-delay:0.483s}.mdarkd38{animation-delay:0.492s}.mdarkd39{animation-delay:0.501s}.mdarkd40{animation-delay:0.510s}.mdarkd41{animation-delay:0.519s}.mdarkd42{animation-delay:0.528s}.mdarkd43{animation-delay:0.537s}.mdarkd44{animation-delay:0.546s}.mdarkd45{animation-delay:0.555s}.mdarkd46{animation-delay:0.564s}.mdarkd47{animation-delay:0.573s}.mdarkd48{animation-delay:0.582s}.mdarkd49{animation-delay:0.591s}.mdarkd50{animation-delay:0.600s}.mdarkd51{animation-delay:0.609s}.mdarkd52{animation-delay:0.618s}</style><defs><rect id="mdarkc" width="11" height="11" rx="2.5"/></defs><g class="fu"><circle cx="33" cy="36.5" r="3" fill="#7cc5ff"/><text class="eyebrow" x="43" y="40">ACTIVITY HEATMAP</text><text class="sub" x="850" y="40" text-anchor="end">59 active days · peak 1.2B tokens/day</text></g><text class="tick" x="70" y="66">Aug</text><text class="tick" x="112" y="66">Sep</text><text class="tick" x="168" y="66">Oct</text><text class="tick" x="224" y="66">Nov</text><text class="tick" x="294" y="66">Dec</text><text class="tick" x="350" y="66">Jan</text><text class="tick" x="406" y="66">Feb</text><text class="tick" x="462" y="66">Mar</text><text class="tick" x="532" y="66">Apr</text><text class="tick" x="588" y="66">May</text><text class="tick" x="658" y="66">Jun</text><text class="tick" x="714" y="66">Jul</text><text class="tick" x="770" y="66">Aug</text><text class="tick" x="60" y="97" text-anchor="end">Mon</text><text class="tick" x="60" y="125" text-anchor="end">Wed</text><text class="tick" x="60" y="153" text-anchor="end">Fri</text><use class="po mdarkd0" href="#mdarkc" x="70" y="74" fill="#161b26"/><use class="po mdarkd0" href="#mdarkc" x="70" y="88" fill="#161b26"/><use class="po mdarkd0" href="#mdarkc" x="70" y="102" fill="#161b26"/><use class="po mdarkd0" href="#mdarkc" x="70" y="116" fill="#161b26"/><use class="po mdarkd0" href="#mdarkc" x="70" y="130" fill="#161b26"/><use class="po mdarkd0" href="#mdarkc" x="70" y="144" fill="#161b26"/><use class="po mdarkd0" href="#mdarkc" x="70" y="158" fill="#161b26"/><use class="po mdarkd1" href="#mdarkc" x="84" y="74" fill="#161b26"/><use class="po mdarkd1" href="#mdarkc" x="84" y="88" fill="#161b26"/><use class="po mdarkd1" href="#mdarkc" x="84" y="102" fill="#161b26"/><use class="po mdarkd1" href="#mdarkc" x="84" y="116" fill="#161b26"/><use class="po mdarkd1" href="#mdarkc" x="84" y="130" fill="#161b26"/><use class="po mdarkd1" href="#mdarkc" x="84" y="144" fill="#161b26"/><use class="po mdarkd1" href="#mdarkc" x="84" y="158" fill="#161b26"/><use class="po mdarkd2" href="#mdarkc" x="98" y="74" fill="#161b26"/><use class="po mdarkd2" href="#mdarkc" x="98" y="88" fill="#161b26"/><use class="po mdarkd2" href="#mdarkc" x="98" y="102" fill="#161b26"/><use class="po mdarkd2" href="#mdarkc" x="98" y="116" fill="#161b26"/><use class="po mdarkd2" href="#mdarkc" x="98" y="130" fill="#161b26"/><use class="po mdarkd2" href="#mdarkc" x="98" y="144" fill="#161b26"/><use class="po mdarkd2" href="#mdarkc" x="98" y="158" fill="#161b26"/><use class="po mdarkd3" href="#mdarkc" x="112" y="74" fill="#161b26"/><use class="po mdarkd3" href="#mdarkc" x="112" y="88" fill="#161b26"/><use class="po mdarkd3" href="#mdarkc" x="112" y="102" fill="#161b26"/><use class="po mdarkd3" href="#mdarkc" x="112" y="116" fill="#161b26"/><use class="po mdarkd3" href="#mdarkc" x="112" y="130" fill="#161b26"/><use class="po mdarkd3" href="#mdarkc" x="112" y="144" fill="#161b26"/><use class="po mdarkd3" href="#mdarkc" x="112" y="158" fill="#161b26"/><use class="po mdarkd4" href="#mdarkc" x="126" y="74" fill="#161b26"/><use class="po mdarkd4" href="#mdarkc" x="126" y="88" fill="#161b26"/><use class="po mdarkd4" href="#mdarkc" x="126" y="102" fill="#161b26"/><use class="po mdarkd4" href="#mdarkc" x="126" y="116" fill="#161b26"/><use class="po mdarkd4" href="#mdarkc" x="126" y="130" fill="#161b26"/><use class="po mdarkd4" href="#mdarkc" x="126" y="144" fill="#161b26"/><use class="po mdarkd4" href="#mdarkc" x="126" y="158" fill="#161b26"/><use class="po mdarkd5" href="#mdarkc" x="140" y="74" fill="#161b26"/><use class="po mdarkd5" href="#mdarkc" x="140" y="88" fill="#161b26"/><use class="po mdarkd5" href="#mdarkc" x="140" y="102" fill="#161b26"/><use class="po mdarkd5" href="#mdarkc" x="140" y="116" fill="#161b26"/><use class="po mdarkd5" href="#mdarkc" x="140" y="130" fill="#161b26"/><use class="po mdarkd5" href="#mdarkc" x="140" y="144" fill="#161b26"/><use class="po mdarkd5" href="#mdarkc" x="140" y="158" fill="#161b26"/><use class="po mdarkd6" href="#mdarkc" x="154" y="74" fill="#161b26"/><use class="po mdarkd6" href="#mdarkc" x="154" y="88" fill="#161b26"/><use class="po mdarkd6" href="#mdarkc" x="154" y="102" fill="#161b26"/><use class="po mdarkd6" href="#mdarkc" x="154" y="116" fill="#161b26"/><use class="po mdarkd6" href="#mdarkc" x="154" y="130" fill="#161b26"/><use class="po mdarkd6" href="#mdarkc" x="154" y="144" fill="#161b26"/><use class="po mdarkd6" href="#mdarkc" x="154" y="158" fill="#161b26"/><use class="po mdarkd7" href="#mdarkc" x="168" y="74" fill="#161b26"/><use class="po mdarkd7" href="#mdarkc" x="168" y="88" fill="#161b26"/><use class="po mdarkd7" href="#mdarkc" x="168" y="102" fill="#161b26"/><use class="po mdarkd7" href="#mdarkc" x="168" y="116" fill="#161b26"/><use class="po mdarkd7" href="#mdarkc" x="168" y="130" fill="#161b26"/><use class="po mdarkd7" href="#mdarkc" x="168" y="144" fill="#161b26"/><use class="po mdarkd7" href="#mdarkc" x="168" y="158" fill="#161b26"/><use class="po mdarkd8" href="#mdarkc" x="182" y="74" fill="#161b26"/><use class="po mdarkd8" href="#mdarkc" x="182" y="88" fill="#161b26"/><use class="po mdarkd8" href="#mdarkc" x="182" y="102" fill="#161b26"/><use class="po mdarkd8" href="#mdarkc" x="182" y="116" fill="#161b26"/><use class="po mdarkd8" href="#mdarkc" x="182" y="130" fill="#161b26"/><use class="po mdarkd8" href="#mdarkc" x="182" y="144" fill="#161b26"/><use class="po mdarkd8" href="#mdarkc" x="182" y="158" fill="#161b26"/><use class="po mdarkd9" href="#mdarkc" x="196" y="74" fill="#161b26"/><use class="po mdarkd9" href="#mdarkc" x="196" y="88" fill="#161b26"/><use class="po mdarkd9" href="#mdarkc" x="196" y="102" fill="#161b26"/><use class="po mdarkd9" href="#mdarkc" x="196" y="116" fill="#161b26"/><use class="po mdarkd9" href="#mdarkc" x="196" y="130" fill="#161b26"/><use class="po mdarkd9" href="#mdarkc" x="196" y="144" fill="#161b26"/><use class="po mdarkd9" href="#mdarkc" x="196" y="158" fill="#161b26"/><use class="po mdarkd10" href="#mdarkc" x="210" y="74" fill="#161b26"/><use class="po mdarkd10" href="#mdarkc" x="210" y="88" fill="#161b26"/><use class="po mdarkd10" href="#mdarkc" x="210" y="102" fill="#161b26"/><use class="po mdarkd10" href="#mdarkc" x="210" y="116" fill="#161b26"/><use class="po mdarkd10" href="#mdarkc" x="210" y="130" fill="#161b26"/><use class="po mdarkd10" href="#mdarkc" x="210" y="144" fill="#161b26"/><use class="po mdarkd10" href="#mdarkc" x="210" y="158" fill="#161b26"/><use class="po mdarkd11" href="#mdarkc" x="224" y="74" fill="#161b26"/><use class="po mdarkd11" href="#mdarkc" x="224" y="88" fill="#161b26"/><use class="po mdarkd11" href="#mdarkc" x="224" y="102" fill="#161b26"/><use class="po mdarkd11" href="#mdarkc" x="224" y="116" fill="#161b26"/><use class="po mdarkd11" href="#mdarkc" x="224" y="130" fill="#161b26"/><use class="po mdarkd11" href="#mdarkc" x="224" y="144" fill="#161b26"/><use class="po mdarkd11" href="#mdarkc" x="224" y="158" fill="#161b26"/><use class="po mdarkd12" href="#mdarkc" x="238" y="74" fill="#161b26"/><use class="po mdarkd12" href="#mdarkc" x="238" y="88" fill="#161b26"/><use class="po mdarkd12" href="#mdarkc" x="238" y="102" fill="#161b26"/><use class="po mdarkd12" href="#mdarkc" x="238" y="116" fill="#161b26"/><use class="po mdarkd12" href="#mdarkc" x="238" y="130" fill="#161b26"/><use class="po mdarkd12" href="#mdarkc" x="238" y="144" fill="#161b26"/><use class="po mdarkd12" href="#mdarkc" x="238" y="158" fill="#161b26"/><use class="po mdarkd13" href="#mdarkc" x="252" y="74" fill="#161b26"/><use class="po mdarkd13" href="#mdarkc" x="252" y="88" fill="#161b26"/><use class="po mdarkd13" href="#mdarkc" x="252" y="102" fill="#161b26"/><use class="po mdarkd13" href="#mdarkc" x="252" y="116" fill="#161b26"/><use class="po mdarkd13" href="#mdarkc" x="252" y="130" fill="#161b26"/><use class="po mdarkd13" href="#mdarkc" x="252" y="144" fill="#161b26"/><use class="po mdarkd13" href="#mdarkc" x="252" y="158" fill="#161b26"/><use class="po mdarkd14" href="#mdarkc" x="266" y="74" fill="#161b26"/><use class="po mdarkd14" href="#mdarkc" x="266" y="88" fill="#161b26"/><use class="po mdarkd14" href="#mdarkc" x="266" y="102" fill="#161b26"/><use class="po mdarkd14" href="#mdarkc" x="266" y="116" fill="#161b26"/><use class="po mdarkd14" href="#mdarkc" x="266" y="130" fill="#161b26"/><use class="po mdarkd14" href="#mdarkc" x="266" y="144" fill="#161b26"/><use class="po mdarkd14" href="#mdarkc" x="266" y="158" fill="#161b26"/><use class="po mdarkd15" href="#mdarkc" x="280" y="74" fill="#161b26"/><use class="po mdarkd15" href="#mdarkc" x="280" y="88" fill="#161b26"/><use class="po mdarkd15" href="#mdarkc" x="280" y="102" fill="#161b26"/><use class="po mdarkd15" href="#mdarkc" x="280" y="116" fill="#161b26"/><use class="po mdarkd15" href="#mdarkc" x="280" y="130" fill="#161b26"/><use class="po mdarkd15" href="#mdarkc" x="280" y="144" fill="#161b26"/><use class="po mdarkd15" href="#mdarkc" x="280" y="158" fill="#161b26"/><use class="po mdarkd16" href="#mdarkc" x="294" y="74" fill="#161b26"/><use class="po mdarkd16" href="#mdarkc" x="294" y="88" fill="#161b26"/><use class="po mdarkd16" href="#mdarkc" x="294" y="102" fill="#161b26"/><use class="po mdarkd16" href="#mdarkc" x="294" y="116" fill="#161b26"/><use class="po mdarkd16" href="#mdarkc" x="294" y="130" fill="#161b26"/><use class="po mdarkd16" href="#mdarkc" x="294" y="144" fill="#161b26"/><use class="po mdarkd16" href="#mdarkc" x="294" y="158" fill="#161b26"/><use class="po mdarkd17" href="#mdarkc" x="308" y="74" fill="#161b26"/><use class="po mdarkd17" href="#mdarkc" x="308" y="88" fill="#161b26"/><use class="po mdarkd17" href="#mdarkc" x="308" y="102" fill="#161b26"/><use class="po mdarkd17" href="#mdarkc" x="308" y="116" fill="#161b26"/><use class="po mdarkd17" href="#mdarkc" x="308" y="130" fill="#161b26"/><use class="po mdarkd17" href="#mdarkc" x="308" y="144" fill="#161b26"/><use class="po mdarkd17" href="#mdarkc" x="308" y="158" fill="#161b26"/><use class="po mdarkd18" href="#mdarkc" x="322" y="74" fill="#161b26"/><use class="po mdarkd18" href="#mdarkc" x="322" y="88" fill="#161b26"/><use class="po mdarkd18" href="#mdarkc" x="322" y="102" fill="#161b26"/><use class="po mdarkd18" href="#mdarkc" x="322" y="116" fill="#161b26"/><use class="po mdarkd18" href="#mdarkc" x="322" y="130" fill="#161b26"/><use class="po mdarkd18" href="#mdarkc" x="322" y="144" fill="#161b26"/><use class="po mdarkd18" href="#mdarkc" x="322" y="158" fill="#161b26"/><use class="po mdarkd19" href="#mdarkc" x="336" y="74" fill="#161b26"/><use class="po mdarkd19" href="#mdarkc" x="336" y="88" fill="#161b26"/><use class="po mdarkd19" href="#mdarkc" x="336" y="102" fill="#161b26"/><use class="po mdarkd19" href="#mdarkc" x="336" y="116" fill="#161b26"/><use class="po mdarkd19" href="#mdarkc" x="336" y="130" fill="#161b26"/><use class="po mdarkd19" href="#mdarkc" x="336" y="144" fill="#161b26"/><use class="po mdarkd19" href="#mdarkc" x="336" y="158" fill="#161b26"/><use class="po mdarkd20" href="#mdarkc" x="350" y="74" fill="#161b26"/><use class="po mdarkd20" href="#mdarkc" x="350" y="88" fill="#161b26"/><use class="po mdarkd20" href="#mdarkc" x="350" y="102" fill="#161b26"/><use class="po mdarkd20" href="#mdarkc" x="350" y="116" fill="#161b26"/><use class="po mdarkd20" href="#mdarkc" x="350" y="130" fill="#161b26"/><use class="po mdarkd20" href="#mdarkc" x="350" y="144" fill="#161b26"/><use class="po mdarkd20" href="#mdarkc" x="350" y="158" fill="#161b26"/><use class="po mdarkd21" href="#mdarkc" x="364" y="74" fill="#161b26"/><use class="po mdarkd21" href="#mdarkc" x="364" y="88" fill="#161b26"/><use class="po mdarkd21" href="#mdarkc" x="364" y="102" fill="#161b26"/><use class="po mdarkd21" href="#mdarkc" x="364" y="116" fill="#161b26"/><use class="po mdarkd21" href="#mdarkc" x="364" y="130" fill="#161b26"/><use class="po mdarkd21" href="#mdarkc" x="364" y="144" fill="#161b26"/><use class="po mdarkd21" href="#mdarkc" x="364" y="158" fill="#161b26"/><use class="po mdarkd22" href="#mdarkc" x="378" y="74" fill="#161b26"/><use class="po mdarkd22" href="#mdarkc" x="378" y="88" fill="#161b26"/><use class="po mdarkd22" href="#mdarkc" x="378" y="102" fill="#161b26"/><use class="po mdarkd22" href="#mdarkc" x="378" y="116" fill="#161b26"/><use class="po mdarkd22" href="#mdarkc" x="378" y="130" fill="#161b26"/><use class="po mdarkd22" href="#mdarkc" x="378" y="144" fill="#161b26"/><use class="po mdarkd22" href="#mdarkc" x="378" y="158" fill="#161b26"/><use class="po mdarkd23" href="#mdarkc" x="392" y="74" fill="#161b26"/><use class="po mdarkd23" href="#mdarkc" x="392" y="88" fill="#161b26"/><use class="po mdarkd23" href="#mdarkc" x="392" y="102" fill="#161b26"/><use class="po mdarkd23" href="#mdarkc" x="392" y="116" fill="#161b26"/><use class="po mdarkd23" href="#mdarkc" x="392" y="130" fill="#161b26"/><use class="po mdarkd23" href="#mdarkc" x="392" y="144" fill="#161b26"/><use class="po mdarkd23" href="#mdarkc" x="392" y="158" fill="#161b26"/><use class="po mdarkd24" href="#mdarkc" x="406" y="74" fill="#161b26"/><use class="po mdarkd24" href="#mdarkc" x="406" y="88" fill="#161b26"/><use class="po mdarkd24" href="#mdarkc" x="406" y="102" fill="#161b26"/><use class="po mdarkd24" href="#mdarkc" x="406" y="116" fill="#161b26"/><use class="po mdarkd24" href="#mdarkc" x="406" y="130" fill="#161b26"/><use class="po mdarkd24" href="#mdarkc" x="406" y="144" fill="#161b26"/><use class="po mdarkd24" href="#mdarkc" x="406" y="158" fill="#161b26"/><use class="po mdarkd25" href="#mdarkc" x="420" y="74" fill="#161b26"/><use class="po mdarkd25" href="#mdarkc" x="420" y="88" fill="#161b26"/><use class="po mdarkd25" href="#mdarkc" x="420" y="102" fill="#161b26"/><use class="po mdarkd25" href="#mdarkc" x="420" y="116" fill="#161b26"/><use class="po mdarkd25" href="#mdarkc" x="420" y="130" fill="#161b26"/><use class="po mdarkd25" href="#mdarkc" x="420" y="144" fill="#161b26"/><use class="po mdarkd25" href="#mdarkc" x="420" y="158" fill="#161b26"/><use class="po mdarkd26" href="#mdarkc" x="434" y="74" fill="#161b26"/><use class="po mdarkd26" href="#mdarkc" x="434" y="88" fill="#161b26"/><use class="po mdarkd26" href="#mdarkc" x="434" y="102" fill="#161b26"/><use class="po mdarkd26" href="#mdarkc" x="434" y="116" fill="#161b26"/><use class="po mdarkd26" href="#mdarkc" x="434" y="130" fill="#161b26"/><use class="po mdarkd26" href="#mdarkc" x="434" y="144" fill="#161b26"/><use class="po mdarkd26" href="#mdarkc" x="434" y="158" fill="#161b26"/><use class="po mdarkd27" href="#mdarkc" x="448" y="74" fill="#161b26"/><use class="po mdarkd27" href="#mdarkc" x="448" y="88" fill="#161b26"/><use class="po mdarkd27" href="#mdarkc" x="448" y="102" fill="#161b26"/><use class="po mdarkd27" href="#mdarkc" x="448" y="116" fill="#161b26"/><use class="po mdarkd27" href="#mdarkc" x="448" y="130" fill="#161b26"/><use class="po mdarkd27" href="#mdarkc" x="448" y="144" fill="#161b26"/><use class="po mdarkd27" href="#mdarkc" x="448" y="158" fill="#161b26"/><use class="po mdarkd28" href="#mdarkc" x="462" y="74" fill="#161b26"/><use class="po mdarkd28" href="#mdarkc" x="462" y="88" fill="#161b26"/><use class="po mdarkd28" href="#mdarkc" x="462" y="102" fill="#161b26"/><use class="po mdarkd28" href="#mdarkc" x="462" y="116" fill="#161b26"/><use class="po mdarkd28" href="#mdarkc" x="462" y="130" fill="#161b26"/><use class="po mdarkd28" href="#mdarkc" x="462" y="144" fill="#161b26"/><use class="po mdarkd28" href="#mdarkc" x="462" y="158" fill="#161b26"/><use class="po mdarkd29" href="#mdarkc" x="476" y="74" fill="#161b26"/><use class="po mdarkd29" href="#mdarkc" x="476" y="88" fill="#161b26"/><use class="po mdarkd29" href="#mdarkc" x="476" y="102" fill="#161b26"/><use class="po mdarkd29" href="#mdarkc" x="476" y="116" fill="#161b26"/><use class="po mdarkd29" href="#mdarkc" x="476" y="130" fill="#161b26"/><use class="po mdarkd29" href="#mdarkc" x="476" y="144" fill="#161b26"/><use class="po mdarkd29" href="#mdarkc" x="476" y="158" fill="#161b26"/><use class="po mdarkd30" href="#mdarkc" x="490" y="74" fill="#161b26"/><use class="po mdarkd30" href="#mdarkc" x="490" y="88" fill="#161b26"/><use class="po mdarkd30" href="#mdarkc" x="490" y="102" fill="#161b26"/><use class="po mdarkd30" href="#mdarkc" x="490" y="116" fill="#161b26"/><use class="po mdarkd30" href="#mdarkc" x="490" y="130" fill="#161b26"/><use class="po mdarkd30" href="#mdarkc" x="490" y="144" fill="#161b26"/><use class="po mdarkd30" href="#mdarkc" x="490" y="158" fill="#161b26"/><use class="po mdarkd31" href="#mdarkc" x="504" y="74" fill="#161b26"/><use class="po mdarkd31" href="#mdarkc" x="504" y="88" fill="#161b26"/><use class="po mdarkd31" href="#mdarkc" x="504" y="102" fill="#161b26"/><use class="po mdarkd31" href="#mdarkc" x="504" y="116" fill="#161b26"/><use class="po mdarkd31" href="#mdarkc" x="504" y="130" fill="#161b26"/><use class="po mdarkd31" href="#mdarkc" x="504" y="144" fill="#161b26"/><use class="po mdarkd31" href="#mdarkc" x="504" y="158" fill="#161b26"/><use class="po mdarkd32" href="#mdarkc" x="518" y="74" fill="#161b26"/><use class="po mdarkd32" href="#mdarkc" x="518" y="88" fill="#161b26"/><use class="po mdarkd32" href="#mdarkc" x="518" y="102" fill="#161b26"/><use class="po mdarkd32" href="#mdarkc" x="518" y="116" fill="#161b26"/><use class="po mdarkd32" href="#mdarkc" x="518" y="130" fill="#161b26"/><use class="po mdarkd32" href="#mdarkc" x="518" y="144" fill="#161b26"/><use class="po mdarkd32" href="#mdarkc" x="518" y="158" fill="#161b26"/><use class="po mdarkd33" href="#mdarkc" x="532" y="74" fill="#161b26"/><use class="po mdarkd33" href="#mdarkc" x="532" y="88" fill="#161b26"/><use class="po mdarkd33" href="#mdarkc" x="532" y="102" fill="#161b26"/><use class="po mdarkd33" href="#mdarkc" x="532" y="116" fill="#161b26"/><use class="po mdarkd33" href="#mdarkc" x="532" y="130" fill="#161b26"/><use class="po mdarkd33" href="#mdarkc" x="532" y="144" fill="#161b26"/><use class="po mdarkd33" href="#mdarkc" x="532" y="158" fill="#161b26"/><use class="po mdarkd34" href="#mdarkc" x="546" y="74" fill="#161b26"/><use class="po mdarkd34" href="#mdarkc" x="546" y="88" fill="#161b26"/><use class="po mdarkd34" href="#mdarkc" x="546" y="102" fill="#161b26"/><use class="po mdarkd34" href="#mdarkc" x="546" y="116" fill="#161b26"/><use class="po mdarkd34" href="#mdarkc" x="546" y="130" fill="#161b26"/><use class="po mdarkd34" href="#mdarkc" x="546" y="144" fill="#161b26"/><use class="po mdarkd34" href="#mdarkc" x="546" y="158" fill="#161b26"/><use class="po mdarkd35" href="#mdarkc" x="560" y="74" fill="#161b26"/><use class="po mdarkd35" href="#mdarkc" x="560" y="88" fill="#161b26"/><use class="po mdarkd35" href="#mdarkc" x="560" y="102" fill="#161b26"/><use class="po mdarkd35" href="#mdarkc" x="560" y="116" fill="#161b26"/><use class="po mdarkd35" href="#mdarkc" x="560" y="130" fill="#161b26"/><use class="po mdarkd35" href="#mdarkc" x="560" y="144" fill="#161b26"/><use class="po mdarkd35" href="#mdarkc" x="560" y="158" fill="#161b26"/><use class="po mdarkd36" href="#mdarkc" x="574" y="74" fill="#161b26"/><use class="po mdarkd36" href="#mdarkc" x="574" y="88" fill="#161b26"/><use class="po mdarkd36" href="#mdarkc" x="574" y="102" fill="#161b26"/><use class="po mdarkd36" href="#mdarkc" x="574" y="116" fill="#161b26"/><use class="po mdarkd36" href="#mdarkc" x="574" y="130" fill="#161b26"/><use class="po mdarkd36" href="#mdarkc" x="574" y="144" fill="#161b26"/><use class="po mdarkd36" href="#mdarkc" x="574" y="158" fill="#161b26"/><use class="po mdarkd37" href="#mdarkc" x="588" y="74" fill="#161b26"/><use class="po mdarkd37" href="#mdarkc" x="588" y="88" fill="#161b26"/><use class="po mdarkd37" href="#mdarkc" x="588" y="102" fill="#161b26"/><use class="po mdarkd37" href="#mdarkc" x="588" y="116" fill="#161b26"/><use class="po mdarkd37" href="#mdarkc" x="588" y="130" fill="#161b26"/><use class="po mdarkd37" href="#mdarkc" x="588" y="144" fill="#161b26"/><use class="po mdarkd37" href="#mdarkc" x="588" y="158" fill="#161b26"/><use class="po mdarkd38" href="#mdarkc" x="602" y="74" fill="#161b26"/><use class="po mdarkd38" href="#mdarkc" x="602" y="88" fill="#161b26"/><use class="po mdarkd38" href="#mdarkc" x="602" y="102" fill="#161b26"/><use class="po mdarkd38" href="#mdarkc" x="602" y="116" fill="#161b26"/><use class="po mdarkd38" href="#mdarkc" x="602" y="130" fill="#161b26"/><use class="po mdarkd38" href="#mdarkc" x="602" y="144" fill="#161b26"/><use class="po mdarkd38" href="#mdarkc" x="602" y="158" fill="#161b26"/><use class="po mdarkd39" href="#mdarkc" x="616" y="74" fill="#161b26"/><use class="po mdarkd39" href="#mdarkc" x="616" y="88" fill="#161b26"/><use class="po mdarkd39" href="#mdarkc" x="616" y="102" fill="#161b26"/><use class="po mdarkd39" href="#mdarkc" x="616" y="116" fill="#161b26"/><use class="po mdarkd39" href="#mdarkc" x="616" y="130" fill="#161b26"/><use class="po mdarkd39" href="#mdarkc" x="616" y="144" fill="#161b26"/><use class="po mdarkd39" href="#mdarkc" x="616" y="158" fill="#161b26"/><use class="po mdarkd40" href="#mdarkc" x="630" y="74" fill="#161b26"/><use class="po mdarkd40" href="#mdarkc" x="630" y="88" fill="#161b26"/><use class="po mdarkd40" href="#mdarkc" x="630" y="102" fill="#161b26"/><use class="po mdarkd40" href="#mdarkc" x="630" y="116" fill="#161b26"/><use class="po mdarkd40" href="#mdarkc" x="630" y="130" fill="#161b26"/><use class="po mdarkd40" href="#mdarkc" x="630" y="144" fill="#161b26"/><use class="po mdarkd40" href="#mdarkc" x="630" y="158" fill="#161b26"/><use class="po mdarkd41" href="#mdarkc" x="644" y="74" fill="#161b26"/><use class="po mdarkd41" href="#mdarkc" x="644" y="88" fill="#161b26"/><use class="po mdarkd41" href="#mdarkc" x="644" y="102" fill="#161b26"/><use class="po mdarkd41" href="#mdarkc" x="644" y="116" fill="#161b26"/><use class="po mdarkd41" href="#mdarkc" x="644" y="130" fill="#161b26"/><use class="po mdarkd41" href="#mdarkc" x="644" y="144" fill="#161b26"/><use class="po mdarkd41" href="#mdarkc" x="644" y="158" fill="#161b26"/><use class="po mdarkd42" href="#mdarkc" x="658" y="74" fill="#161b26"/><use class="po mdarkd42" href="#mdarkc" x="658" y="88" fill="#161b26"/><use class="po mdarkd42" href="#mdarkc" x="658" y="102" fill="#161b26"/><use class="po mdarkd42" href="#mdarkc" x="658" y="116" fill="#161b26"/><use class="po mdarkd42" href="#mdarkc" x="658" y="130" fill="#161b26"/><use class="po mdarkd42" href="#mdarkc" x="658" y="144" fill="#0e3f4d"/><use class="po mdarkd42" href="#mdarkc" x="658" y="158" fill="#161b26"/><use class="po mdarkd43" href="#mdarkc" x="672" y="74" fill="#161b26"/><use class="po mdarkd43" href="#mdarkc" x="672" y="88" fill="#116b7a"/><use class="po mdarkd43" href="#mdarkc" x="672" y="102" fill="#0e3f4d"/><use class="po mdarkd43" href="#mdarkc" x="672" y="116" fill="#0e3f4d"/><use class="po mdarkd43" href="#mdarkc" x="672" y="130" fill="#0e3f4d"/><use class="po mdarkd43" href="#mdarkc" x="672" y="144" fill="#161b26"/><use class="po mdarkd43" href="#mdarkc" x="672" y="158" fill="#0e3f4d"/><use class="po mdarkd44" href="#mdarkc" x="686" y="74" fill="#161b26"/><use class="po mdarkd44" href="#mdarkc" x="686" y="88" fill="#0e3f4d"/><use class="po mdarkd44" href="#mdarkc" x="686" y="102" fill="#0e3f4d"/><use class="po mdarkd44" href="#mdarkc" x="686" y="116" fill="#0e3f4d"/><use class="po mdarkd44" href="#mdarkc" x="686" y="130" fill="#0e3f4d"/><use class="po mdarkd44" href="#mdarkc" x="686" y="144" fill="#0e3f4d"/><use class="po mdarkd44" href="#mdarkc" x="686" y="158" fill="#0e3f4d"/><use class="po mdarkd45" href="#mdarkc" x="700" y="74" fill="#0e3f4d"/><use class="po mdarkd45" href="#mdarkc" x="700" y="88" fill="#116b7a"/><use class="po mdarkd45" href="#mdarkc" x="700" y="102" fill="#1aa3a3"/><use class="po mdarkd45" href="#mdarkc" x="700" y="116" fill="#116b7a"/><use class="po mdarkd45" href="#mdarkc" x="700" y="130" fill="#116b7a"/><use class="po mdarkd45" href="#mdarkc" x="700" y="144" fill="#1aa3a3"/><use class="po mdarkd45" href="#mdarkc" x="700" y="158" fill="#116b7a"/><use class="po mdarkd46" href="#mdarkc" x="714" y="74" fill="#1aa3a3"/><use class="po mdarkd46" href="#mdarkc" x="714" y="88" fill="#1aa3a3"/><use class="po mdarkd46" href="#mdarkc" x="714" y="102" fill="#1aa3a3"/><use class="po mdarkd46" href="#mdarkc" x="714" y="116" fill="#116b7a"/><use class="po mdarkd46" href="#mdarkc" x="714" y="130" fill="#161b26"/><use class="po mdarkd46" href="#mdarkc" x="714" y="144" fill="#1aa3a3"/><use class="po mdarkd46 mdarkhi" href="#mdarkc" x="714" y="158" fill="#5ce6c4"/><use class="po mdarkd47" href="#mdarkc" x="728" y="74" fill="#1aa3a3"/><use class="po mdarkd47" href="#mdarkc" x="728" y="88" fill="#116b7a"/><use class="po mdarkd47 mdarkhi" href="#mdarkc" x="728" y="102" fill="#5ce6c4"/><use class="po mdarkd47 mdarkhi" href="#mdarkc" x="728" y="116" fill="#5ce6c4"/><use class="po mdarkd47" href="#mdarkc" x="728" y="130" fill="#116b7a"/><use class="po mdarkd47" href="#mdarkc" x="728" y="144" fill="#116b7a"/><use class="po mdarkd47" href="#mdarkc" x="728" y="158" fill="#116b7a"/><use class="po mdarkd48" href="#mdarkc" x="742" y="74" fill="#0e3f4d"/><use class="po mdarkd48 mdarkhi" href="#mdarkc" x="742" y="88" fill="#5ce6c4"/><use class="po mdarkd48" href="#mdarkc" x="742" y="102" fill="#116b7a"/><use class="po mdarkd48" href="#mdarkc" x="742" y="116" fill="#1aa3a3"/><use class="po mdarkd48 mdarkhi" href="#mdarkc" x="742" y="130" fill="#5ce6c4"/><use class="po mdarkd48 mdarkhi" href="#mdarkc" x="742" y="144" fill="#5ce6c4"/><use class="po mdarkd48 mdarkhi" href="#mdarkc" x="742" y="158" fill="#5ce6c4"/><use class="po mdarkd49 mdarkhi" href="#mdarkc" x="756" y="74" fill="#5ce6c4"/><use class="po mdarkd49 mdarkhi" href="#mdarkc" x="756" y="88" fill="#5ce6c4"/><use class="po mdarkd49 mdarkhi" href="#mdarkc" x="756" y="102" fill="#5ce6c4"/><use class="po mdarkd49 mdarkhi" href="#mdarkc" x="756" y="116" fill="#5ce6c4"/><use class="po mdarkd49" href="#mdarkc" x="756" y="130" fill="#116b7a"/><use class="po mdarkd49" href="#mdarkc" x="756" y="144" fill="#0e3f4d"/><use class="po mdarkd49" href="#mdarkc" x="756" y="158" fill="#161b26"/><use class="po mdarkd50" href="#mdarkc" x="770" y="74" fill="#116b7a"/><use class="po mdarkd50" href="#mdarkc" x="770" y="88" fill="#1aa3a3"/><use class="po mdarkd50 mdarkhi" href="#mdarkc" x="770" y="102" fill="#5ce6c4"/><use class="po mdarkd50" href="#mdarkc" x="770" y="116" fill="#1aa3a3"/><use class="po mdarkd50" href="#mdarkc" x="770" y="130" fill="#116b7a"/><use class="po mdarkd50" href="#mdarkc" x="770" y="144" fill="#161b26"/><use class="po mdarkd50 mdarkhi" href="#mdarkc" x="770" y="158" fill="#5ce6c4"/><use class="po mdarkd51" href="#mdarkc" x="784" y="74" fill="#1aa3a3"/><use class="po mdarkd51" href="#mdarkc" x="784" y="88" fill="#161b26"/><use class="po mdarkd51" href="#mdarkc" x="784" y="102" fill="#116b7a"/><use class="po mdarkd51" href="#mdarkc" x="784" y="116" fill="#0e3f4d"/><use class="po mdarkd51" href="#mdarkc" x="784" y="130" fill="#1aa3a3"/><use class="po mdarkd51 mdarkhi" href="#mdarkc" x="784" y="144" fill="#5ce6c4"/><use class="po mdarkd51" href="#mdarkc" x="784" y="158" fill="#1aa3a3"/><use class="po mdarkd52" href="#mdarkc" x="798" y="74" fill="#1aa3a3"/><use class="po mdarkd52" href="#mdarkc" x="798" y="88" fill="#1aa3a3"/><text class="tick" x="691" y="186">Less</text><rect x="721" y="177" width="11" height="11" rx="2.5" fill="#161b26"/><rect x="735" y="177" width="11" height="11" rx="2.5" fill="#0e3f4d"/><rect x="749" y="177" width="11" height="11" rx="2.5" fill="#116b7a"/><rect x="763" y="177" width="11" height="11" rx="2.5" fill="#1aa3a3"/><rect x="777" y="177" width="11" height="11" rx="2.5" fill="#5ce6c4"/><text class="tick" x="796" y="186">More</text></svg>