<svg xmlns="http://www.w3.org/2000/svg" width="440" height="287" viewBox="0 0 440 287" role="img" aria-label="Top models"><style>text{font-family:-apple-system,BlinkMacSystemFont,'Segoe UI','Noto Sans',Helvetica,Arial,sans-serif,'Apple Color Emoji','Segoe UI Emoji'}.mono{font-family:ui-monospace,SFMono-Regular,'SF Mono',Menlo,Consolas,'Liberation Mono',monospace}.h{font-size:14px;font-weight:600;fill:#1f2328}.sub{font-size:12px;fill:#59636e}.tick{font-size:10px;fill:#59636e}.foot{font-size:11px;fill:#818b98}.num{font-size:22px;font-weight:600;fill:#1f2328}.num-s{font-size:15px;font-weight:600;fill:#1f2328}.lab{font-size:11px;fill:#59636e}@keyframes blink{0%,49%{opacity:1}50%,100%{opacity:0}}.cur{animation:blink 1.1s step-end infinite}@media (prefers-reduced-motion:reduce){.cur{animation:none}}</style><rect x=".5" y=".5" width="439" height="286" rx="6" fill="#ffffff" stroke="#d1d9e0"/><text class="h" x="16" y="30">Models · codex</text><line x1="16" y1="44" x2="424" y2="44" stroke="#d1d9e0" stroke-opacity=".7"/><text class="lab" x="16" y="68" fill="#1f2328">gpt-5.6-sol</text><text class="lab" x="424" y="68" text-anchor="end">3.12B · 92%</text><rect x="16" y="73" width="408" height="6" rx="3" fill="#f6f8fa"/><rect x="16" y="73" width="375.4" height="6" rx="3" fill="#6d28d9"/><text class="lab" x="16" y="95" fill="#1f2328">gpt-5.5</text><text class="lab" x="424" y="95" text-anchor="end">177M · 5%</text><rect x="16" y="100" width="408" height="6" rx="3" fill="#f6f8fa"/><rect x="16" y="100" width="21.2" height="6" rx="3" fill="#7231de"/><text class="lab" x="16" y="122" fill="#1f2328">deepseek-v4-flash</text><text class="lab" x="424" y="122" text-anchor="end">34.3M · 1%</text><rect x="16" y="127" width="408" height="6" rx="3" fill="#f6f8fa"/><rect x="16" y="127" width="4.1" height="6" rx="3" fill="#7739e3"/><text class="lab" x="16" y="149" fill="#1f2328">gpt-5.6-terra</text><text class="lab" x="424" y="149" text-anchor="end">23.5M · 1%</text><rect x="16" y="154" width="408" height="6" rx="3" fill="#f6f8fa"/><rect x="16" y="154" width="2.8" height="6" rx="3" fill="#7c42e8"/><text class="lab" x="16" y="176" fill="#1f2328">codex-auto-review</text><text class="lab" x="424" y="176" text-anchor="end">19.8M · 1%</text><rect x="16" y="181" width="408" height="6" rx="3" fill="#f6f8fa"/><rect x="16" y="181" width="2.4" height="6" rx="3" fill="#814bec"/><text class="lab" x="16" y="203" fill="#1f2328">gpt-5.6-luna</text><text class="lab" x="424" y="203" text-anchor="end">16.9M · 0%</text><rect x="16" y="208" width="408" height="6" rx="3" fill="#f6f8fa"/><rect x="16" y="208" width="2.0" height="6" rx="3" fill="#8653f1"/><text class="lab" x="16" y="230" fill="#1f2328">deepseek-v4-pro</text><text class="lab" x="424" y="230" text-anchor="end">20.5K · 0%</text><rect x="16" y="235" width="408" height="6" rx="3" fill="#f6f8fa"/><rect x="16" y="235" width="2.0" height="6" rx="3" fill="#8b5cf6"/><line x1="16" y1="257" x2="424" y2="257" stroke="#d1d9e0" stroke-opacity=".7"/><text class="foot" x="16" y="275">7 distinct models · bar length = share of all model tokens</text></svg>